<mxfile host="app.diagrams.net" modified="2024-03-21T01:35:21.909Z" agent="Mozilla/5.0 (Windows NT 10.0; Win64; x64) AppleWebKit/537.36 (KHTML, like Gecko) Chrome/122.0.0.0 Safari/537.36" etag="RYxnsFWsnnv-WXWNu9A-" version="24.0.2" type="github">
  <diagram name="第 1 页" id="WnFoVOCNcByE03xFzpFk">
    <mxGraphModel dx="1095" dy="603" grid="1" gridSize="10" guides="1" tooltips="1" connect="1" arrows="1" fold="1" page="1" pageScale="1" pageWidth="827" pageHeight="1169" math="0" shadow="0">
      <root>
        <mxCell id="0" />
        <mxCell id="1" parent="0" />
        <mxCell id="wuZvDj9s8fZifpbFYdYD-1" value="设备映射模版" style="swimlane;whiteSpace=wrap;html=1;" vertex="1" parent="1">
          <mxGeometry x="40" y="30" width="785" height="530" as="geometry" />
        </mxCell>
        <mxCell id="wuZvDj9s8fZifpbFYdYD-7" value="空间(查询默认包含子空间)" style="rounded=0;whiteSpace=wrap;html=1;" vertex="1" parent="wuZvDj9s8fZifpbFYdYD-1">
          <mxGeometry x="490" y="60" width="105" height="30" as="geometry" />
        </mxCell>
        <mxCell id="wuZvDj9s8fZifpbFYdYD-8" value="设备模型" style="rounded=0;whiteSpace=wrap;html=1;" vertex="1" parent="wuZvDj9s8fZifpbFYdYD-1">
          <mxGeometry x="340" y="60" width="105" height="30" as="geometry" />
        </mxCell>
        <mxCell id="wuZvDj9s8fZifpbFYdYD-9" value="品牌" style="rounded=0;whiteSpace=wrap;html=1;" vertex="1" parent="wuZvDj9s8fZifpbFYdYD-1">
          <mxGeometry x="190" y="60" width="105" height="30" as="geometry" />
        </mxCell>
        <mxCell id="wuZvDj9s8fZifpbFYdYD-10" value="户型" style="rounded=0;whiteSpace=wrap;html=1;" vertex="1" parent="wuZvDj9s8fZifpbFYdYD-1">
          <mxGeometry x="40" y="60" width="105" height="30" as="geometry" />
        </mxCell>
        <mxCell id="wuZvDj9s8fZifpbFYdYD-2" value="JSON 远程实施" style="swimlane;whiteSpace=wrap;html=1;startSize=23;" vertex="1" parent="1">
          <mxGeometry x="25" y="620" width="785" height="370" as="geometry" />
        </mxCell>
      </root>
    </mxGraphModel>
  </diagram>
</mxfile>
